<?xml version="1.0" encoding="UTF-8"?>
<svg xmlns="http://www.w3.org/2000/svg" xmlns:xlink="http://www.w3.org/1999/xlink" version="1.1" width="200px" height="200px" viewBox="0 0 200 200"><defs><rect id="r0" width="4" height="4" fill="#000000"/></defs><rect x="0" y="0" width="200" height="200" fill="#fefefe"/><use x="18" y="18" xlink:href="#r0"/><use x="22" y="18" xlink:href="#r0"/><use x="26" y="18" xlink:href="#r0"/><use x="30" y="18" xlink:href="#r0"/><use x="34" y="18" xlink:href="#r0"/><use x="38" y="18" xlink:href="#r0"/><use x="42" y="18" xlink:href="#r0"/><use x="54" y="18" xlink:href="#r0"/><use x="74" y="18" xlink:href="#r0"/><use x="94" y="18" xlink:href="#r0"/><use x="102" y="18" xlink:href="#r0"/><use x="106" y="18" xlink:href="#r0"/><use x="110" y="18" xlink:href="#r0"/><use x="114" y="18" xlink:href="#r0"/><use x="122" y="18" xlink:href="#r0"/><use x="142" y="18" xlink:href="#r0"/><use x="154" y="18" xlink:href="#r0"/><use x="158" y="18" xlink:href="#r0"/><use x="162" y="18" xlink:href="#r0"/><use x="166" y="18" xlink:href="#r0"/><use x="170" y="18" xlink:href="#r0"/><use x="174" y="18" xlink:href="#r0"/><use x="178" y="18" xlink:href="#r0"/><use x="18" y="22" xlink:href="#r0"/><use x="42" y="22" xlink:href="#r0"/><use x="50" y="22" xlink:href="#r0"/><use x="66" y="22" xlink:href="#r0"/><use x="78" y="22" xlink:href="#r0"/><use x="82" y="22" xlink:href="#r0"/><use x="86" y="22" xlink:href="#r0"/><use x="90" y="22" xlink:href="#r0"/><use x="102" y="22" xlink:href="#r0"/><use x="126" y="22" xlink:href="#r0"/><use x="134" y="22" xlink:href="#r0"/><use x="154" y="22" xlink:href="#r0"/><use x="178" y="22" xlink:href="#r0"/><use x="18" y="26" xlink:href="#r0"/><use x="26" y="26" xlink:href="#r0"/><use x="30" y="26" xlink:href="#r0"/><use x="34" y="26" xlink:href="#r0"/><use x="42" y="26" xlink:href="#r0"/><use x="58" y="26" xlink:href="#r0"/><use x="66" y="26" xlink:href="#r0"/><use x="74" y="26" xlink:href="#r0"/><use x="102" y="26" xlink:href="#r0"/><use x="106" y="26" xlink:href="#r0"/><use x="114" y="26" xlink:href="#r0"/><use x="122" y="26" xlink:href="#r0"/><use x="126" y="26" xlink:href="#r0"/><use x="130" y="26" xlink:href="#r0"/><use x="138" y="26" xlink:href="#r0"/><use x="154" y="26" xlink:href="#r0"/><use x="162" y="26" xlink:href="#r0"/><use x="166" y="26" xlink:href="#r0"/><use x="170" y="26" xlink:href="#r0"/><use x="178" y="26" xlink:href="#r0"/><use x="18" y="30" xlink:href="#r0"/><use x="26" y="30" xlink:href="#r0"/><use x="30" y="30" xlink:href="#r0"/><use x="34" y="30" xlink:href="#r0"/><use x="42" y="30" xlink:href="#r0"/><use x="50" y="30" xlink:href="#r0"/><use x="70" y="30" xlink:href="#r0"/><use x="74" y="30" xlink:href="#r0"/><use x="78" y="30" xlink:href="#r0"/><use x="82" y="30" xlink:href="#r0"/><use x="86" y="30" xlink:href="#r0"/><use x="98" y="30" xlink:href="#r0"/><use x="106" y="30" xlink:href="#r0"/><use x="114" y="30" xlink:href="#r0"/><use x="118" y="30" xlink:href="#r0"/><use x="122" y="30" xlink:href="#r0"/><use x="126" y="30" xlink:href="#r0"/><use x="130" y="30" xlink:href="#r0"/><use x="134" y="30" xlink:href="#r0"/><use x="138" y="30" xlink:href="#r0"/><use x="142" y="30" xlink:href="#r0"/><use x="146" y="30" xlink:href="#r0"/><use x="154" y="30" xlink:href="#r0"/><use x="162" y="30" xlink:href="#r0"/><use x="166" y="30" xlink:href="#r0"/><use x="170" y="30" xlink:href="#r0"/><use x="178" y="30" xlink:href="#r0"/><use x="18" y="34" xlink:href="#r0"/><use x="26" y="34" xlink:href="#r0"/><use x="30" y="34" xlink:href="#r0"/><use x="34" y="34" xlink:href="#r0"/><use x="42" y="34" xlink:href="#r0"/><use x="90" y="34" xlink:href="#r0"/><use x="94" y="34" xlink:href="#r0"/><use x="102" y="34" xlink:href="#r0"/><use x="110" y="34" xlink:href="#r0"/><use x="142" y="34" xlink:href="#r0"/><use x="154" y="34" xlink:href="#r0"/><use x="162" y="34" xlink:href="#r0"/><use x="166" y="34" xlink:href="#r0"/><use x="170" y="34" xlink:href="#r0"/><use x="178" y="34" xlink:href="#r0"/><use x="18" y="38" xlink:href="#r0"/><use x="42" y="38" xlink:href="#r0"/><use x="50" y="38" xlink:href="#r0"/><use x="54" y="38" xlink:href="#r0"/><use x="66" y="38" xlink:href="#r0"/><use x="74" y="38" xlink:href="#r0"/><use x="78" y="38" xlink:href="#r0"/><use x="82" y="38" xlink:href="#r0"/><use x="90" y="38" xlink:href="#r0"/><use x="98" y="38" xlink:href="#r0"/><use x="106" y="38" xlink:href="#r0"/><use x="118" y="38" xlink:href="#r0"/><use x="122" y="38" xlink:href="#r0"/><use x="126" y="38" xlink:href="#r0"/><use x="138" y="38" xlink:href="#r0"/><use x="146" y="38" xlink:href="#r0"/><use x="154" y="38" xlink:href="#r0"/><use x="178" y="38" xlink:href="#r0"/><use x="18" y="42" xlink:href="#r0"/><use x="22" y="42" xlink:href="#r0"/><use x="26" y="42" xlink:href="#r0"/><use x="30" y="42" xlink:href="#r0"/><use x="34" y="42" xlink:href="#r0"/><use x="38" y="42" xlink:href="#r0"/><use x="42" y="42" xlink:href="#r0"/><use x="50" y="42" xlink:href="#r0"/><use x="58" y="42" xlink:href="#r0"/><use x="66" y="42" xlink:href="#r0"/><use x="74" y="42" xlink:href="#r0"/><use x="82" y="42" xlink:href="#r0"/><use x="90" y="42" xlink:href="#r0"/><use x="98" y="42" xlink:href="#r0"/><use x="106" y="42" xlink:href="#r0"/><use x="114" y="42" xlink:href="#r0"/><use x="122" y="42" xlink:href="#r0"/><use x="130" y="42" xlink:href="#r0"/><use x="138" y="42" xlink:href="#r0"/><use x="146" y="42" xlink:href="#r0"/><use x="154" y="42" xlink:href="#r0"/><use x="158" y="42" xlink:href="#r0"/><use x="162" y="42" xlink:href="#r0"/><use x="166" y="42" xlink:href="#r0"/><use x="170" y="42" xlink:href="#r0"/><use x="174" y="42" xlink:href="#r0"/><use x="178" y="42" xlink:href="#r0"/><use x="54" y="46" xlink:href="#r0"/><use x="58" y="46" xlink:href="#r0"/><use x="66" y="46" xlink:href="#r0"/><use x="90" y="46" xlink:href="#r0"/><use x="94" y="46" xlink:href="#r0"/><use x="102" y="46" xlink:href="#r0"/><use x="110" y="46" xlink:href="#r0"/><use x="114" y="46" xlink:href="#r0"/><use x="126" y="46" xlink:href="#r0"/><use x="138" y="46" xlink:href="#r0"/><use x="18" y="50" xlink:href="#r0"/><use x="22" y="50" xlink:href="#r0"/><use x="26" y="50" xlink:href="#r0"/><use x="30" y="50" xlink:href="#r0"/><use x="34" y="50" xlink:href="#r0"/><use x="42" y="50" xlink:href="#r0"/><use x="46" y="50" xlink:href="#r0"/><use x="50" y="50" xlink:href="#r0"/><use x="54" y="50" xlink:href="#r0"/><use x="58" y="50" xlink:href="#r0"/><use x="62" y="50" xlink:href="#r0"/><use x="66" y="50" xlink:href="#r0"/><use x="70" y="50" xlink:href="#r0"/><use x="74" y="50" xlink:href="#r0"/><use x="78" y="50" xlink:href="#r0"/><use x="82" y="50" xlink:href="#r0"/><use x="86" y="50" xlink:href="#r0"/><use x="98" y="50" xlink:href="#r0"/><use x="118" y="50" xlink:href="#r0"/><use x="134" y="50" xlink:href="#r0"/><use x="142" y="50" xlink:href="#r0"/><use x="146" y="50" xlink:href="#r0"/><use x="150" y="50" xlink:href="#r0"/><use x="158" y="50" xlink:href="#r0"/><use x="166" y="50" xlink:href="#r0"/><use x="174" y="50" xlink:href="#r0"/><use x="22" y="54" xlink:href="#r0"/><use x="34" y="54" xlink:href="#r0"/><use x="58" y="54" xlink:href="#r0"/><use x="62" y="54" xlink:href="#r0"/><use x="66" y="54" xlink:href="#r0"/><use x="90" y="54" xlink:href="#r0"/><use x="94" y="54" xlink:href="#r0"/><use x="102" y="54" xlink:href="#r0"/><use x="106" y="54" xlink:href="#r0"/><use x="110" y="54" xlink:href="#r0"/><use x="114" y="54" xlink:href="#r0"/><use x="122" y="54" xlink:href="#r0"/><use x="130" y="54" xlink:href="#r0"/><use x="138" y="54" xlink:href="#r0"/><use x="142" y="54" xlink:href="#r0"/><use x="154" y="54" xlink:href="#r0"/><use x="162" y="54" xlink:href="#r0"/><use x="170" y="54" xlink:href="#r0"/><use x="174" y="54" xlink:href="#r0"/><use x="178" y="54" xlink:href="#r0"/><use x="18" y="58" xlink:href="#r0"/><use x="34" y="58" xlink:href="#r0"/><use x="42" y="58" xlink:href="#r0"/><use x="46" y="58" xlink:href="#r0"/><use x="50" y="58" xlink:href="#r0"/><use x="54" y="58" xlink:href="#r0"/><use x="66" y="58" xlink:href="#r0"/><use x="74" y="58" xlink:href="#r0"/><use x="78" y="58" xlink:href="#r0"/><use x="86" y="58" xlink:href="#r0"/><use x="90" y="58" xlink:href="#r0"/><use x="102" y="58" xlink:href="#r0"/><use x="106" y="58" xlink:href="#r0"/><use x="118" y="58" xlink:href="#r0"/><use x="126" y="58" xlink:href="#r0"/><use x="130" y="58" xlink:href="#r0"/><use x="146" y="58" xlink:href="#r0"/><use x="150" y="58" xlink:href="#r0"/><use x="158" y="58" xlink:href="#r0"/><use x="18" y="62" xlink:href="#r0"/><use x="26" y="62" xlink:href="#r0"/><use x="30" y="62" xlink:href="#r0"/><use x="34" y="62" xlink:href="#r0"/><use x="46" y="62" xlink:href="#r0"/><use x="50" y="62" xlink:href="#r0"/><use x="54" y="62" xlink:href="#r0"/><use x="58" y="62" xlink:href="#r0"/><use x="78" y="62" xlink:href="#r0"/><use x="90" y="62" xlink:href="#r0"/><use x="102" y="62" xlink:href="#r0"/><use x="106" y="62" xlink:href="#r0"/><use x="126" y="62" xlink:href="#r0"/><use x="162" y="62" xlink:href="#r0"/><use x="18" y="66" xlink:href="#r0"/><use x="38" y="66" xlink:href="#r0"/><use x="42" y="66" xlink:href="#r0"/><use x="46" y="66" xlink:href="#r0"/><use x="62" y="66" xlink:href="#r0"/><use x="70" y="66" xlink:href="#r0"/><use x="78" y="66" xlink:href="#r0"/><use x="86" y="66" xlink:href="#r0"/><use x="94" y="66" xlink:href="#r0"/><use x="98" y="66" xlink:href="#r0"/><use x="106" y="66" xlink:href="#r0"/><use x="114" y="66" xlink:href="#r0"/><use x="118" y="66" xlink:href="#r0"/><use x="130" y="66" xlink:href="#r0"/><use x="134" y="66" xlink:href="#r0"/><use x="138" y="66" xlink:href="#r0"/><use x="142" y="66" xlink:href="#r0"/><use x="146" y="66" xlink:href="#r0"/><use x="166" y="66" xlink:href="#r0"/><use x="170" y="66" xlink:href="#r0"/><use x="22" y="70" xlink:href="#r0"/><use x="26" y="70" xlink:href="#r0"/><use x="46" y="70" xlink:href="#r0"/><use x="50" y="70" xlink:href="#r0"/><use x="54" y="70" xlink:href="#r0"/><use x="58" y="70" xlink:href="#r0"/><use x="66" y="70" xlink:href="#r0"/><use x="74" y="70" xlink:href="#r0"/><use x="82" y="70" xlink:href="#r0"/><use x="90" y="70" xlink:href="#r0"/><use x="94" y="70" xlink:href="#r0"/><use x="102" y="70" xlink:href="#r0"/><use x="110" y="70" xlink:href="#r0"/><use x="122" y="70" xlink:href="#r0"/><use x="142" y="70" xlink:href="#r0"/><use x="150" y="70" xlink:href="#r0"/><use x="154" y="70" xlink:href="#r0"/><use x="158" y="70" xlink:href="#r0"/><use x="162" y="70" xlink:href="#r0"/><use x="166" y="70" xlink:href="#r0"/><use x="178" y="70" xlink:href="#r0"/><use x="34" y="74" xlink:href="#r0"/><use x="38" y="74" xlink:href="#r0"/><use x="42" y="74" xlink:href="#r0"/><use x="74" y="74" xlink:href="#r0"/><use x="78" y="74" xlink:href="#r0"/><use x="82" y="74" xlink:href="#r0"/><use x="90" y="74" xlink:href="#r0"/><use x="102" y="74" xlink:href="#r0"/><use x="106" y="74" xlink:href="#r0"/><use x="118" y="74" xlink:href="#r0"/><use x="122" y="74" xlink:href="#r0"/><use x="126" y="74" xlink:href="#r0"/><use x="134" y="74" xlink:href="#r0"/><use x="146" y="74" xlink:href="#r0"/><use x="150" y="74" xlink:href="#r0"/><use x="174" y="74" xlink:href="#r0"/><use x="22" y="78" xlink:href="#r0"/><use x="26" y="78" xlink:href="#r0"/><use x="38" y="78" xlink:href="#r0"/><use x="66" y="78" xlink:href="#r0"/><use x="78" y="78" xlink:href="#r0"/><use x="102" y="78" xlink:href="#r0"/><use x="110" y="78" xlink:href="#r0"/><use x="126" y="78" xlink:href="#r0"/><use x="138" y="78" xlink:href="#r0"/><use x="142" y="78" xlink:href="#r0"/><use x="146" y="78" xlink:href="#r0"/><use x="150" y="78" xlink:href="#r0"/><use x="162" y="78" xlink:href="#r0"/><use x="178" y="78" xlink:href="#r0"/><use x="18" y="82" xlink:href="#r0"/><use x="22" y="82" xlink:href="#r0"/><use x="26" y="82" xlink:href="#r0"/><use x="38" y="82" xlink:href="#r0"/><use x="42" y="82" xlink:href="#r0"/><use x="58" y="82" xlink:href="#r0"/><use x="66" y="82" xlink:href="#r0"/><use x="70" y="82" xlink:href="#r0"/><use x="74" y="82" xlink:href="#r0"/><use x="78" y="82" xlink:href="#r0"/><use x="82" y="82" xlink:href="#r0"/><use x="86" y="82" xlink:href="#r0"/><use x="94" y="82" xlink:href="#r0"/><use x="98" y="82" xlink:href="#r0"/><use x="118" y="82" xlink:href="#r0"/><use x="122" y="82" xlink:href="#r0"/><use x="130" y="82" xlink:href="#r0"/><use x="134" y="82" xlink:href="#r0"/><use x="138" y="82" xlink:href="#r0"/><use x="146" y="82" xlink:href="#r0"/><use x="150" y="82" xlink:href="#r0"/><use x="166" y="82" xlink:href="#r0"/><use x="170" y="82" xlink:href="#r0"/><use x="174" y="82" xlink:href="#r0"/><use x="18" y="86" xlink:href="#r0"/><use x="62" y="86" xlink:href="#r0"/><use x="90" y="86" xlink:href="#r0"/><use x="94" y="86" xlink:href="#r0"/><use x="102" y="86" xlink:href="#r0"/><use x="106" y="86" xlink:href="#r0"/><use x="110" y="86" xlink:href="#r0"/><use x="114" y="86" xlink:href="#r0"/><use x="118" y="86" xlink:href="#r0"/><use x="142" y="86" xlink:href="#r0"/><use x="154" y="86" xlink:href="#r0"/><use x="158" y="86" xlink:href="#r0"/><use x="162" y="86" xlink:href="#r0"/><use x="166" y="86" xlink:href="#r0"/><use x="174" y="86" xlink:href="#r0"/><use x="178" y="86" xlink:href="#r0"/><use x="18" y="90" xlink:href="#r0"/><use x="22" y="90" xlink:href="#r0"/><use x="26" y="90" xlink:href="#r0"/><use x="30" y="90" xlink:href="#r0"/><use x="38" y="90" xlink:href="#r0"/><use x="42" y="90" xlink:href="#r0"/><use x="46" y="90" xlink:href="#r0"/><use x="50" y="90" xlink:href="#r0"/><use x="54" y="90" xlink:href="#r0"/><use x="58" y="90" xlink:href="#r0"/><use x="74" y="90" xlink:href="#r0"/><use x="78" y="90" xlink:href="#r0"/><use x="102" y="90" xlink:href="#r0"/><use x="106" y="90" xlink:href="#r0"/><use x="126" y="90" xlink:href="#r0"/><use x="138" y="90" xlink:href="#r0"/><use x="146" y="90" xlink:href="#r0"/><use x="162" y="90" xlink:href="#r0"/><use x="166" y="90" xlink:href="#r0"/><use x="18" y="94" xlink:href="#r0"/><use x="26" y="94" xlink:href="#r0"/><use x="30" y="94" xlink:href="#r0"/><use x="58" y="94" xlink:href="#r0"/><use x="62" y="94" xlink:href="#r0"/><use x="66" y="94" xlink:href="#r0"/><use x="74" y="94" xlink:href="#r0"/><use x="78" y="94" xlink:href="#r0"/><use x="102" y="94" xlink:href="#r0"/><use x="122" y="94" xlink:href="#r0"/><use x="138" y="94" xlink:href="#r0"/><use x="146" y="94" xlink:href="#r0"/><use x="150" y="94" xlink:href="#r0"/><use x="158" y="94" xlink:href="#r0"/><use x="162" y="94" xlink:href="#r0"/><use x="166" y="94" xlink:href="#r0"/><use x="174" y="94" xlink:href="#r0"/><use x="26" y="98" xlink:href="#r0"/><use x="30" y="98" xlink:href="#r0"/><use x="38" y="98" xlink:href="#r0"/><use x="42" y="98" xlink:href="#r0"/><use x="50" y="98" xlink:href="#r0"/><use x="66" y="98" xlink:href="#r0"/><use x="78" y="98" xlink:href="#r0"/><use x="86" y="98" xlink:href="#r0"/><use x="90" y="98" xlink:href="#r0"/><use x="98" y="98" xlink:href="#r0"/><use x="118" y="98" xlink:href="#r0"/><use x="126" y="98" xlink:href="#r0"/><use x="130" y="98" xlink:href="#r0"/><use x="134" y="98" xlink:href="#r0"/><use x="138" y="98" xlink:href="#r0"/><use x="146" y="98" xlink:href="#r0"/><use x="170" y="98" xlink:href="#r0"/><use x="174" y="98" xlink:href="#r0"/><use x="18" y="102" xlink:href="#r0"/><use x="26" y="102" xlink:href="#r0"/><use x="34" y="102" xlink:href="#r0"/><use x="46" y="102" xlink:href="#r0"/><use x="50" y="102" xlink:href="#r0"/><use x="82" y="102" xlink:href="#r0"/><use x="94" y="102" xlink:href="#r0"/><use x="106" y="102" xlink:href="#r0"/><use x="110" y="102" xlink:href="#r0"/><use x="114" y="102" xlink:href="#r0"/><use x="122" y="102" xlink:href="#r0"/><use x="134" y="102" xlink:href="#r0"/><use x="142" y="102" xlink:href="#r0"/><use x="150" y="102" xlink:href="#r0"/><use x="154" y="102" xlink:href="#r0"/><use x="158" y="102" xlink:href="#r0"/><use x="162" y="102" xlink:href="#r0"/><use x="178" y="102" xlink:href="#r0"/><use x="18" y="106" xlink:href="#r0"/><use x="26" y="106" xlink:href="#r0"/><use x="38" y="106" xlink:href="#r0"/><use x="42" y="106" xlink:href="#r0"/><use x="46" y="106" xlink:href="#r0"/><use x="50" y="106" xlink:href="#r0"/><use x="54" y="106" xlink:href="#r0"/><use x="58" y="106" xlink:href="#r0"/><use x="62" y="106" xlink:href="#r0"/><use x="66" y="106" xlink:href="#r0"/><use x="70" y="106" xlink:href="#r0"/><use x="74" y="106" xlink:href="#r0"/><use x="78" y="106" xlink:href="#r0"/><use x="82" y="106" xlink:href="#r0"/><use x="86" y="106" xlink:href="#r0"/><use x="90" y="106" xlink:href="#r0"/><use x="98" y="106" xlink:href="#r0"/><use x="102" y="106" xlink:href="#r0"/><use x="122" y="106" xlink:href="#r0"/><use x="126" y="106" xlink:href="#r0"/><use x="138" y="106" xlink:href="#r0"/><use x="146" y="106" xlink:href="#r0"/><use x="150" y="106" xlink:href="#r0"/><use x="174" y="106" xlink:href="#r0"/><use x="22" y="110" xlink:href="#r0"/><use x="34" y="110" xlink:href="#r0"/><use x="46" y="110" xlink:href="#r0"/><use x="58" y="110" xlink:href="#r0"/><use x="62" y="110" xlink:href="#r0"/><use x="78" y="110" xlink:href="#r0"/><use x="90" y="110" xlink:href="#r0"/><use x="102" y="110" xlink:href="#r0"/><use x="110" y="110" xlink:href="#r0"/><use x="114" y="110" xlink:href="#r0"/><use x="130" y="110" xlink:href="#r0"/><use x="154" y="110" xlink:href="#r0"/><use x="158" y="110" xlink:href="#r0"/><use x="162" y="110" xlink:href="#r0"/><use x="166" y="110" xlink:href="#r0"/><use x="26" y="114" xlink:href="#r0"/><use x="30" y="114" xlink:href="#r0"/><use x="38" y="114" xlink:href="#r0"/><use x="42" y="114" xlink:href="#r0"/><use x="46" y="114" xlink:href="#r0"/><use x="54" y="114" xlink:href="#r0"/><use x="62" y="114" xlink:href="#r0"/><use x="70" y="114" xlink:href="#r0"/><use x="74" y="114" xlink:href="#r0"/><use x="78" y="114" xlink:href="#r0"/><use x="82" y="114" xlink:href="#r0"/><use x="86" y="114" xlink:href="#r0"/><use x="90" y="114" xlink:href="#r0"/><use x="94" y="114" xlink:href="#r0"/><use x="98" y="114" xlink:href="#r0"/><use x="114" y="114" xlink:href="#r0"/><use x="118" y="114" xlink:href="#r0"/><use x="122" y="114" xlink:href="#r0"/><use x="126" y="114" xlink:href="#r0"/><use x="134" y="114" xlink:href="#r0"/><use x="138" y="114" xlink:href="#r0"/><use x="146" y="114" xlink:href="#r0"/><use x="150" y="114" xlink:href="#r0"/><use x="170" y="114" xlink:href="#r0"/><use x="30" y="118" xlink:href="#r0"/><use x="34" y="118" xlink:href="#r0"/><use x="38" y="118" xlink:href="#r0"/><use x="46" y="118" xlink:href="#r0"/><use x="62" y="118" xlink:href="#r0"/><use x="66" y="118" xlink:href="#r0"/><use x="70" y="118" xlink:href="#r0"/><use x="94" y="118" xlink:href="#r0"/><use x="102" y="118" xlink:href="#r0"/><use x="106" y="118" xlink:href="#r0"/><use x="110" y="118" xlink:href="#r0"/><use x="130" y="118" xlink:href="#r0"/><use x="134" y="118" xlink:href="#r0"/><use x="142" y="118" xlink:href="#r0"/><use x="154" y="118" xlink:href="#r0"/><use x="158" y="118" xlink:href="#r0"/><use x="162" y="118" xlink:href="#r0"/><use x="178" y="118" xlink:href="#r0"/><use x="18" y="122" xlink:href="#r0"/><use x="22" y="122" xlink:href="#r0"/><use x="26" y="122" xlink:href="#r0"/><use x="30" y="122" xlink:href="#r0"/><use x="34" y="122" xlink:href="#r0"/><use x="38" y="122" xlink:href="#r0"/><use x="42" y="122" xlink:href="#r0"/><use x="58" y="122" xlink:href="#r0"/><use x="66" y="122" xlink:href="#r0"/><use x="70" y="122" xlink:href="#r0"/><use x="74" y="122" xlink:href="#r0"/><use x="78" y="122" xlink:href="#r0"/><use x="82" y="122" xlink:href="#r0"/><use x="86" y="122" xlink:href="#r0"/><use x="118" y="122" xlink:href="#r0"/><use x="126" y="122" xlink:href="#r0"/><use x="130" y="122" xlink:href="#r0"/><use x="138" y="122" xlink:href="#r0"/><use x="150" y="122" xlink:href="#r0"/><use x="158" y="122" xlink:href="#r0"/><use x="166" y="122" xlink:href="#r0"/><use x="170" y="122" xlink:href="#r0"/><use x="174" y="122" xlink:href="#r0"/><use x="22" y="126" xlink:href="#r0"/><use x="26" y="126" xlink:href="#r0"/><use x="34" y="126" xlink:href="#r0"/><use x="54" y="126" xlink:href="#r0"/><use x="70" y="126" xlink:href="#r0"/><use x="102" y="126" xlink:href="#r0"/><use x="110" y="126" xlink:href="#r0"/><use x="114" y="126" xlink:href="#r0"/><use x="122" y="126" xlink:href="#r0"/><use x="138" y="126" xlink:href="#r0"/><use x="146" y="126" xlink:href="#r0"/><use x="154" y="126" xlink:href="#r0"/><use x="158" y="126" xlink:href="#r0"/><use x="162" y="126" xlink:href="#r0"/><use x="178" y="126" xlink:href="#r0"/><use x="18" y="130" xlink:href="#r0"/><use x="26" y="130" xlink:href="#r0"/><use x="30" y="130" xlink:href="#r0"/><use x="34" y="130" xlink:href="#r0"/><use x="38" y="130" xlink:href="#r0"/><use x="42" y="130" xlink:href="#r0"/><use x="46" y="130" xlink:href="#r0"/><use x="74" y="130" xlink:href="#r0"/><use x="78" y="130" xlink:href="#r0"/><use x="86" y="130" xlink:href="#r0"/><use x="90" y="130" xlink:href="#r0"/><use x="98" y="130" xlink:href="#r0"/><use x="106" y="130" xlink:href="#r0"/><use x="114" y="130" xlink:href="#r0"/><use x="118" y="130" xlink:href="#r0"/><use x="126" y="130" xlink:href="#r0"/><use x="130" y="130" xlink:href="#r0"/><use x="134" y="130" xlink:href="#r0"/><use x="138" y="130" xlink:href="#r0"/><use x="146" y="130" xlink:href="#r0"/><use x="150" y="130" xlink:href="#r0"/><use x="158" y="130" xlink:href="#r0"/><use x="166" y="130" xlink:href="#r0"/><use x="170" y="130" xlink:href="#r0"/><use x="174" y="130" xlink:href="#r0"/><use x="18" y="134" xlink:href="#r0"/><use x="30" y="134" xlink:href="#r0"/><use x="34" y="134" xlink:href="#r0"/><use x="46" y="134" xlink:href="#r0"/><use x="54" y="134" xlink:href="#r0"/><use x="66" y="134" xlink:href="#r0"/><use x="82" y="134" xlink:href="#r0"/><use x="94" y="134" xlink:href="#r0"/><use x="110" y="134" xlink:href="#r0"/><use x="122" y="134" xlink:href="#r0"/><use x="142" y="134" xlink:href="#r0"/><use x="154" y="134" xlink:href="#r0"/><use x="162" y="134" xlink:href="#r0"/><use x="166" y="134" xlink:href="#r0"/><use x="174" y="134" xlink:href="#r0"/><use x="178" y="134" xlink:href="#r0"/><use x="18" y="138" xlink:href="#r0"/><use x="34" y="138" xlink:href="#r0"/><use x="38" y="138" xlink:href="#r0"/><use x="42" y="138" xlink:href="#r0"/><use x="46" y="138" xlink:href="#r0"/><use x="50" y="138" xlink:href="#r0"/><use x="54" y="138" xlink:href="#r0"/><use x="58" y="138" xlink:href="#r0"/><use x="74" y="138" xlink:href="#r0"/><use x="78" y="138" xlink:href="#r0"/><use x="102" y="138" xlink:href="#r0"/><use x="118" y="138" xlink:href="#r0"/><use x="126" y="138" xlink:href="#r0"/><use x="130" y="138" xlink:href="#r0"/><use x="134" y="138" xlink:href="#r0"/><use x="138" y="138" xlink:href="#r0"/><use x="146" y="138" xlink:href="#r0"/><use x="150" y="138" xlink:href="#r0"/><use x="170" y="138" xlink:href="#r0"/><use x="18" y="142" xlink:href="#r0"/><use x="30" y="142" xlink:href="#r0"/><use x="34" y="142" xlink:href="#r0"/><use x="46" y="142" xlink:href="#r0"/><use x="54" y="142" xlink:href="#r0"/><use x="66" y="142" xlink:href="#r0"/><use x="78" y="142" xlink:href="#r0"/><use x="90" y="142" xlink:href="#r0"/><use x="94" y="142" xlink:href="#r0"/><use x="102" y="142" xlink:href="#r0"/><use x="106" y="142" xlink:href="#r0"/><use x="150" y="142" xlink:href="#r0"/><use x="154" y="142" xlink:href="#r0"/><use x="158" y="142" xlink:href="#r0"/><use x="162" y="142" xlink:href="#r0"/><use x="166" y="142" xlink:href="#r0"/><use x="174" y="142" xlink:href="#r0"/><use x="18" y="146" xlink:href="#r0"/><use x="26" y="146" xlink:href="#r0"/><use x="42" y="146" xlink:href="#r0"/><use x="46" y="146" xlink:href="#r0"/><use x="70" y="146" xlink:href="#r0"/><use x="78" y="146" xlink:href="#r0"/><use x="86" y="146" xlink:href="#r0"/><use x="98" y="146" xlink:href="#r0"/><use x="106" y="146" xlink:href="#r0"/><use x="114" y="146" xlink:href="#r0"/><use x="118" y="146" xlink:href="#r0"/><use x="126" y="146" xlink:href="#r0"/><use x="134" y="146" xlink:href="#r0"/><use x="146" y="146" xlink:href="#r0"/><use x="150" y="146" xlink:href="#r0"/><use x="154" y="146" xlink:href="#r0"/><use x="158" y="146" xlink:href="#r0"/><use x="162" y="146" xlink:href="#r0"/><use x="170" y="146" xlink:href="#r0"/><use x="174" y="146" xlink:href="#r0"/><use x="50" y="150" xlink:href="#r0"/><use x="54" y="150" xlink:href="#r0"/><use x="58" y="150" xlink:href="#r0"/><use x="62" y="150" xlink:href="#r0"/><use x="66" y="150" xlink:href="#r0"/><use x="74" y="150" xlink:href="#r0"/><use x="82" y="150" xlink:href="#r0"/><use x="90" y="150" xlink:href="#r0"/><use x="94" y="150" xlink:href="#r0"/><use x="102" y="150" xlink:href="#r0"/><use x="110" y="150" xlink:href="#r0"/><use x="122" y="150" xlink:href="#r0"/><use x="130" y="150" xlink:href="#r0"/><use x="138" y="150" xlink:href="#r0"/><use x="146" y="150" xlink:href="#r0"/><use x="162" y="150" xlink:href="#r0"/><use x="178" y="150" xlink:href="#r0"/><use x="18" y="154" xlink:href="#r0"/><use x="22" y="154" xlink:href="#r0"/><use x="26" y="154" xlink:href="#r0"/><use x="30" y="154" xlink:href="#r0"/><use x="34" y="154" xlink:href="#r0"/><use x="38" y="154" xlink:href="#r0"/><use x="42" y="154" xlink:href="#r0"/><use x="50" y="154" xlink:href="#r0"/><use x="54" y="154" xlink:href="#r0"/><use x="78" y="154" xlink:href="#r0"/><use x="102" y="154" xlink:href="#r0"/><use x="106" y="154" xlink:href="#r0"/><use x="114" y="154" xlink:href="#r0"/><use x="118" y="154" xlink:href="#r0"/><use x="126" y="154" xlink:href="#r0"/><use x="130" y="154" xlink:href="#r0"/><use x="142" y="154" xlink:href="#r0"/><use x="146" y="154" xlink:href="#r0"/><use x="154" y="154" xlink:href="#r0"/><use x="162" y="154" xlink:href="#r0"/><use x="170" y="154" xlink:href="#r0"/><use x="174" y="154" xlink:href="#r0"/><use x="18" y="158" xlink:href="#r0"/><use x="42" y="158" xlink:href="#r0"/><use x="58" y="158" xlink:href="#r0"/><use x="62" y="158" xlink:href="#r0"/><use x="66" y="158" xlink:href="#r0"/><use x="74" y="158" xlink:href="#r0"/><use x="94" y="158" xlink:href="#r0"/><use x="98" y="158" xlink:href="#r0"/><use x="102" y="158" xlink:href="#r0"/><use x="106" y="158" xlink:href="#r0"/><use x="110" y="158" xlink:href="#r0"/><use x="122" y="158" xlink:href="#r0"/><use x="130" y="158" xlink:href="#r0"/><use x="138" y="158" xlink:href="#r0"/><use x="142" y="158" xlink:href="#r0"/><use x="146" y="158" xlink:href="#r0"/><use x="162" y="158" xlink:href="#r0"/><use x="166" y="158" xlink:href="#r0"/><use x="18" y="162" xlink:href="#r0"/><use x="26" y="162" xlink:href="#r0"/><use x="30" y="162" xlink:href="#r0"/><use x="34" y="162" xlink:href="#r0"/><use x="42" y="162" xlink:href="#r0"/><use x="50" y="162" xlink:href="#r0"/><use x="54" y="162" xlink:href="#r0"/><use x="66" y="162" xlink:href="#r0"/><use x="78" y="162" xlink:href="#r0"/><use x="82" y="162" xlink:href="#r0"/><use x="86" y="162" xlink:href="#r0"/><use x="98" y="162" xlink:href="#r0"/><use x="106" y="162" xlink:href="#r0"/><use x="114" y="162" xlink:href="#r0"/><use x="118" y="162" xlink:href="#r0"/><use x="126" y="162" xlink:href="#r0"/><use x="130" y="162" xlink:href="#r0"/><use x="134" y="162" xlink:href="#r0"/><use x="138" y="162" xlink:href="#r0"/><use x="146" y="162" xlink:href="#r0"/><use x="150" y="162" xlink:href="#r0"/><use x="154" y="162" xlink:href="#r0"/><use x="158" y="162" xlink:href="#r0"/><use x="162" y="162" xlink:href="#r0"/><use x="170" y="162" xlink:href="#r0"/><use x="18" y="166" xlink:href="#r0"/><use x="26" y="166" xlink:href="#r0"/><use x="30" y="166" xlink:href="#r0"/><use x="34" y="166" xlink:href="#r0"/><use x="42" y="166" xlink:href="#r0"/><use x="50" y="166" xlink:href="#r0"/><use x="74" y="166" xlink:href="#r0"/><use x="90" y="166" xlink:href="#r0"/><use x="94" y="166" xlink:href="#r0"/><use x="102" y="166" xlink:href="#r0"/><use x="110" y="166" xlink:href="#r0"/><use x="122" y="166" xlink:href="#r0"/><use x="150" y="166" xlink:href="#r0"/><use x="158" y="166" xlink:href="#r0"/><use x="174" y="166" xlink:href="#r0"/><use x="18" y="170" xlink:href="#r0"/><use x="26" y="170" xlink:href="#r0"/><use x="30" y="170" xlink:href="#r0"/><use x="34" y="170" xlink:href="#r0"/><use x="42" y="170" xlink:href="#r0"/><use x="50" y="170" xlink:href="#r0"/><use x="58" y="170" xlink:href="#r0"/><use x="62" y="170" xlink:href="#r0"/><use x="66" y="170" xlink:href="#r0"/><use x="78" y="170" xlink:href="#r0"/><use x="82" y="170" xlink:href="#r0"/><use x="102" y="170" xlink:href="#r0"/><use x="114" y="170" xlink:href="#r0"/><use x="118" y="170" xlink:href="#r0"/><use x="126" y="170" xlink:href="#r0"/><use x="138" y="170" xlink:href="#r0"/><use x="146" y="170" xlink:href="#r0"/><use x="154" y="170" xlink:href="#r0"/><use x="162" y="170" xlink:href="#r0"/><use x="166" y="170" xlink:href="#r0"/><use x="174" y="170" xlink:href="#r0"/><use x="178" y="170" xlink:href="#r0"/><use x="18" y="174" xlink:href="#r0"/><use x="42" y="174" xlink:href="#r0"/><use x="50" y="174" xlink:href="#r0"/><use x="58" y="174" xlink:href="#r0"/><use x="62" y="174" xlink:href="#r0"/><use x="74" y="174" xlink:href="#r0"/><use x="78" y="174" xlink:href="#r0"/><use x="94" y="174" xlink:href="#r0"/><use x="98" y="174" xlink:href="#r0"/><use x="102" y="174" xlink:href="#r0"/><use x="106" y="174" xlink:href="#r0"/><use x="110" y="174" xlink:href="#r0"/><use x="114" y="174" xlink:href="#r0"/><use x="122" y="174" xlink:href="#r0"/><use x="142" y="174" xlink:href="#r0"/><use x="146" y="174" xlink:href="#r0"/><use x="150" y="174" xlink:href="#r0"/><use x="154" y="174" xlink:href="#r0"/><use x="162" y="174" xlink:href="#r0"/><use x="166" y="174" xlink:href="#r0"/><use x="174" y="174" xlink:href="#r0"/><use x="18" y="178" xlink:href="#r0"/><use x="22" y="178" xlink:href="#r0"/><use x="26" y="178" xlink:href="#r0"/><use x="30" y="178" xlink:href="#r0"/><use x="34" y="178" xlink:href="#r0"/><use x="38" y="178" xlink:href="#r0"/><use x="42" y="178" xlink:href="#r0"/><use x="50" y="178" xlink:href="#r0"/><use x="54" y="178" xlink:href="#r0"/><use x="58" y="178" xlink:href="#r0"/><use x="62" y="178" xlink:href="#r0"/><use x="70" y="178" xlink:href="#r0"/><use x="78" y="178" xlink:href="#r0"/><use x="82" y="178" xlink:href="#r0"/><use x="86" y="178" xlink:href="#r0"/><use x="90" y="178" xlink:href="#r0"/><use x="106" y="178" xlink:href="#r0"/><use x="118" y="178" xlink:href="#r0"/><use x="126" y="178" xlink:href="#r0"/><use x="130" y="178" xlink:href="#r0"/><use x="134" y="178" xlink:href="#r0"/><use x="138" y="178" xlink:href="#r0"/><use x="150" y="178" xlink:href="#r0"/><use x="158" y="178" xlink:href="#r0"/><use x="162" y="178" xlink:href="#r0"/><use x="170" y="178" xlink:href="#r0"/></svg>
